# xmcd
#
# Track frame offsets: 
#        150
#        18270
#        35494
#        53299
#        71397
#        87360
#        108129
#        130759
#        154600
#        174641
#        195236
#        217479
#
# Disc length: 3108 seconds
#
# Revision: 0
# Processed by: cddbd v1.5.2PL0 Copyright (c) Steve Scherf et al.
# Submitted via: ExactAudioCopy v1.0b1
#
DISCID=940c220c
DTITLE=Ray Charles - Genius Loves Company
DYEAR=2004
DGENRE=Blues
TTITLE0=Here We Go Again - with Norah Jones
TTITLE1=Sweet Potato Pie - with James Taylor
TTITLE2=You Don't Know Me - with Diana Krall
TTITLE3=Sorry Seems To Be The Hardest Word - with Elton John
TTITLE4=Fever - with Natalie Cole
TTITLE5=Do I Ever Cross Your Mind - with Bonnie Raitt
TTITLE6=It Was A Very Good Year - with Wellie Nelson
TTITLE7=Hey Girl - with Michael McDonald
TTITLE8=Sinner's Prayer - with B.B.King
TTITLE9=Heaven Help Us All - with Gladys Night
TTITLE10=Over The Rainbow - with Johnny Mathis
TTITLE11=Crazy Love - with Van Morrison
EXTD=
EXTT0=
EXTT1=
EXTT2=
EXTT3=
EXTT4=
EXTT5=
EXTT6=
EXTT7=
EXTT8=
EXTT9=
EXTT10=
EXTT11=
PLAYORDER=
